<mxfile host="65bd71144e">
    <diagram id="ZKzgmVWO_qzG66_UkIin" name="Page-1">
        <mxGraphModel dx="2338" dy="1580" grid="1" gridSize="10" guides="1" tooltips="1" connect="1" arrows="1" fold="1" page="1" pageScale="1" pageWidth="1920" pageHeight="1200" math="0" shadow="0">
            <root>
                <mxCell id="0"/>
                <mxCell id="1" parent="0"/>
                <mxCell id="2" value="&lt;font style=&quot;font-size: 60px&quot;&gt;App&lt;/font&gt;" style="rounded=0;whiteSpace=wrap;html=1;horizontal=1;verticalAlign=top;" parent="1" vertex="1">
                    <mxGeometry x="50" y="40" width="1860" height="1160" as="geometry"/>
                </mxCell>
                <mxCell id="4" value="Navbar" style="rounded=1;whiteSpace=wrap;html=1;fontSize=60;" parent="1" vertex="1">
                    <mxGeometry x="125" y="130" width="1670" height="60" as="geometry"/>
                </mxCell>
                <mxCell id="5" value="MerchControl&lt;br&gt;&lt;font style=&quot;line-height: 1.1&quot;&gt;&lt;font style=&quot;font-size: 21px&quot;&gt;This componetn will determine whether the merchlist, new merch form, or ticket detail is showing&lt;/font&gt;&lt;br&gt;&lt;/font&gt;" style="rounded=0;whiteSpace=wrap;html=1;fontSize=60;verticalAlign=top;" parent="1" vertex="1">
                    <mxGeometry x="150" y="240" width="1700" height="840" as="geometry"/>
                </mxCell>
                <mxCell id="7" value="Merch List" style="rounded=1;whiteSpace=wrap;html=1;fontSize=60;verticalAlign=top;" parent="1" vertex="1">
                    <mxGeometry x="230" y="380" width="370" height="660" as="geometry"/>
                </mxCell>
                <mxCell id="8" value="NewMerch Form" style="rounded=1;whiteSpace=wrap;html=1;fontSize=60;verticalAlign=top;" parent="1" vertex="1">
                    <mxGeometry x="630" y="380" width="365" height="660" as="geometry"/>
                </mxCell>
                <mxCell id="9" value="Merch Detail" style="rounded=1;whiteSpace=wrap;html=1;fontSize=60;verticalAlign=top;" parent="1" vertex="1">
                    <mxGeometry x="1070" y="380" width="360" height="670" as="geometry"/>
                </mxCell>
                <mxCell id="10" value="Merch&lt;br&gt;clicking will show the merch details" style="rounded=1;whiteSpace=wrap;html=1;fontSize=20;" parent="1" vertex="1">
                    <mxGeometry x="335" y="480" width="160" height="90" as="geometry"/>
                </mxCell>
                <mxCell id="11" value="Merch" style="rounded=1;whiteSpace=wrap;html=1;fontSize=20;" parent="1" vertex="1">
                    <mxGeometry x="360" y="620" width="120" height="60" as="geometry"/>
                </mxCell>
                <mxCell id="12" value="Merch" style="rounded=1;whiteSpace=wrap;html=1;fontSize=20;" parent="1" vertex="1">
                    <mxGeometry x="360" y="730" width="120" height="60" as="geometry"/>
                </mxCell>
                <mxCell id="13" value="Add Merch&lt;br style=&quot;font-size: 39px&quot;&gt;&lt;span style=&quot;font-size: 22px&quot;&gt;clicking this will show new merch form, this lives in the merch control&lt;/span&gt;" style="rounded=0;whiteSpace=wrap;html=1;fontSize=40;" parent="1" vertex="1">
                    <mxGeometry x="245" y="830" width="340" height="180" as="geometry"/>
                </mxCell>
                <mxCell id="14" value="Submit&lt;br style=&quot;font-size: 38px&quot;&gt;&lt;span style=&quot;font-size: 22px&quot;&gt;Clicking will add merch to the merch list&lt;/span&gt;" style="rounded=0;whiteSpace=wrap;html=1;fontSize=39;" parent="1" vertex="1">
                    <mxGeometry x="670" y="830" width="270" height="130" as="geometry"/>
                </mxCell>
                <mxCell id="15" value="Update/ Delete&lt;br style=&quot;font-size: 39px&quot;&gt;&lt;span style=&quot;font-size: 22px&quot;&gt;These buttons will allow use to access the edit list form or delete merch&lt;/span&gt;" style="rounded=0;whiteSpace=wrap;html=1;fontSize=40;" parent="1" vertex="1">
                    <mxGeometry x="1095" y="780" width="310" height="190" as="geometry"/>
                </mxCell>
                <mxCell id="tPFdVtnUfA02BlCo6YBx-15" value="Edit Merch Form" style="rounded=1;whiteSpace=wrap;html=1;fontSize=40;verticalAlign=top;" vertex="1" parent="1">
                    <mxGeometry x="1480" y="380" width="330" height="660" as="geometry"/>
                </mxCell>
            </root>
        </mxGraphModel>
    </diagram>
    <diagram id="5Yldx7D7_8vW3LwwPjU1" name="Page-1">
        <mxGraphModel dx="1409" dy="790" grid="1" gridSize="10" guides="1" tooltips="1" connect="1" arrows="1" fold="1" page="1" pageScale="1" pageWidth="1100" pageHeight="850" math="0" shadow="0">
            <root>
                <mxCell id="0"/>
                <mxCell id="1" parent="0"/>
            </root>
        </mxGraphModel>
    </diagram>
</mxfile>